<svg width="291" height="71" viewBox="0 0 291 71" fill="none" xmlns="http://www.w3.org/2000/svg">
<g clip-path="url(#clip0)">
<path fill-rule="evenodd" clip-rule="evenodd" d="M25.4236 37.6858C25.5869 37.5919 28.1778 36.0616 29.9214 33.0416C30.8208 31.4837 31.4947 29.529 31.4943 27.1714V2.18566L27.7086 0L26.4465 2.18537V27.1718C26.4471 31.1431 23.0292 33.2361 22.8997 33.3148L1.26171 45.8071L0 47.9924L3.78579 50.1781L25.4236 37.6858ZM66.2961 45.8067L67.5577 47.9928L63.7719 50.1787L42.1336 37.6858C36.133 34.2213 36.0629 27.4573 36.0632 27.1718V2.18603L39.849 0L41.1108 2.18631V27.1715C41.1136 27.3214 41.2166 31.3272 44.6576 33.3139L66.2961 45.8067ZM61.4872 54.1362V58.5076L58.9631 58.5081L37.3248 46.0153C37.1932 45.9425 33.6732 44.0281 30.2319 46.0147L8.59366 58.5076H6.06995L6.07042 54.1356L27.7078 41.643C33.7101 38.1791 39.6013 41.5004 39.8491 41.6434L61.4872 54.1362Z" fill="url(#paint0_radial)"/>
<path d="M61.4873 16.8645L39.8491 29.3574C33.8485 32.8223 27.9561 29.5003 27.7084 29.3574L6.07102 16.865V12.4935L27.7086 0L30.2325 4.37103L12.3813 14.6788L30.2326 24.9853C30.3642 25.058 33.8841 26.9723 37.3255 24.9858L55.177 14.679L37.325 4.37215L39.8492 0L61.4874 12.493L61.4873 16.8645ZM67.558 23.0071L63.7723 20.8214L42.1341 33.3143C41.8871 33.4568 36.0637 36.8987 36.0631 43.8294L36.0638 68.8139L39.8495 70.9995L61.4874 58.5073L58.9634 54.1362L41.1117 64.442V43.8294C41.111 39.8523 44.53 37.7632 44.6581 37.6854L62.5101 27.3792V47.9929H67.5574L67.558 23.0071ZM31.4947 43.8274C31.4947 43.5416 31.4257 36.7791 25.4238 33.314L3.78645 20.8214L0.00440241 22.8566C0 22.9387 0 22.9387 0 47.9924H2.5208H5.0475V27.3792L22.8996 37.6863C26.3412 39.6733 26.444 43.6778 26.4469 43.828L26.4464 64.442L8.59444 54.1351L6.07027 58.5071L27.7085 71L31.4943 68.8141L31.4947 43.8274Z" fill="#10C0DD"/>
</g>
<path d="M92.6444 32.9709H87.8242V27.2514H92.5685V26.4543C92.5685 18.3053 95.9717 14.8635 103.955 14.8635H107.358V20.5703H104.271C100.476 20.5703 98.7676 22.3545 98.7676 26.4543V27.3147H106.966V33.0342H98.7549V55.2919H92.6064L92.6444 32.9709Z" fill="#F6F6F6"/>
<path d="M124.245 26.7717C129.305 26.7717 132.924 27.8979 135.239 30.2262C137.554 32.5544 138.693 36.2113 138.693 41.2728C138.693 46.3343 137.567 50.0165 135.239 52.3321C132.911 54.6477 129.255 55.7865 124.245 55.7865C119.235 55.7865 115.566 54.6477 113.301 52.3321C111.037 50.0165 109.848 46.3469 109.848 41.2728C109.848 36.1987 110.974 32.5418 113.301 30.2262C115.629 27.9106 119.235 26.7717 124.245 26.7717ZM115.996 41.2728C115.996 44.3476 116.641 46.562 117.982 47.9033C118.842 48.6601 119.845 49.237 120.932 49.6C122.018 49.9629 123.166 50.1045 124.308 50.0165C130.128 50.0165 132.607 47.3719 132.607 41.2728C132.607 35.1737 130.077 32.5418 124.308 32.5418C123.171 32.4501 122.026 32.584 120.941 32.9358C119.855 33.2876 118.85 33.8503 117.982 34.5917C116.616 35.9456 115.996 38.198 115.996 41.2728Z" fill="#F6F6F6"/>
<path d="M150.613 55.2931H144.527V27.2526H150.613V30.3274C152.447 27.9612 155.471 26.7717 159.62 26.7717H162.151V32.5418H157.786C152.611 32.5418 150.562 35.0725 150.562 41.2728L150.613 55.2931Z" fill="#F6F6F6"/>
<path d="M166.793 55.2925V27.252H172.891V30.2509C174.662 27.9353 177.572 26.7458 181.62 26.7458C186.2 26.7458 189.211 28.3022 190.843 31.4404C192.614 28.3022 195.904 26.7458 200.648 26.7458C208.239 26.7458 211.705 30.5419 211.705 39.3109V55.2925H205.481V39.3362C205.481 34.5911 203.545 32.5412 199.155 32.5412C194.196 32.5412 192.197 35.0719 192.197 41.2722V55.2925H186.048V39.3362C186.048 34.5911 184.113 32.5412 179.798 32.5412C174.839 32.5412 172.79 35.0719 172.79 41.2722V55.2925H166.793Z" fill="#F6F6F6"/>
<path d="M218.017 19.266C217.94 18.1823 218.269 17.1089 218.94 16.2544C219.768 15.5706 220.831 15.2389 221.901 15.3307C224.659 15.3307 225.785 16.5201 225.785 19.266C225.785 22.0118 224.659 23.0621 221.901 23.0621C220.833 23.1519 219.772 22.8255 218.94 22.151C218.265 21.3484 217.933 20.3117 218.017 19.266ZM218.826 55.2909V27.2504H224.924V55.2909H218.826Z" fill="#F6F6F6"/>
<path d="M230.785 41.2728C230.785 31.1499 235.049 26.7717 244.803 26.7717C253.482 26.7717 257.644 30.1123 258.719 37.8184H252.621C251.812 34.0982 249.496 32.5418 245.031 32.5418C239.426 32.5418 237.048 35.1864 237.048 41.2728C237.048 47.3592 239.426 50.0165 245.031 50.0165C249.509 50.0165 251.875 48.3968 252.621 44.7273H258.618C257.694 52.3194 253.431 55.7865 244.702 55.7865C235.011 55.7865 230.785 51.4084 230.785 41.2728Z" fill="#F6F6F6"/>
<path d="M263.324 47.1568C263.324 40.9565 266.879 38.5776 275.343 38.5776H284.351C284.186 34.0982 281.972 32.1622 276.962 32.1622C272.863 32.1622 270.713 33.4276 270.004 36.3632H263.919C264.944 29.6821 268.815 26.7717 277.177 26.7717C286.501 26.7717 290.499 30.378 290.499 38.7927V55.2424H284.351V52.117C282.251 54.5465 278.797 55.7865 274.002 55.7865C266.664 55.7865 263.324 53.1419 263.324 47.1568ZM275.457 50.4973C281.011 50.4973 283.655 48.5487 284.313 44.1705V43.1582H276.924C271.864 43.1582 269.334 44.4236 269.334 46.9543C269.41 49.232 271.408 50.4973 275.457 50.4973Z" fill="#F6F6F6"/>
<defs>
<radialGradient id="paint0_radial" cx="0" cy="0" r="1" gradientUnits="userSpaceOnUse" gradientTransform="translate(34.2017 35.1971) scale(31.1134 31.0984)">
<stop offset="0.05" stop-color="#13879B"/>
<stop offset="0.3" stop-color="#167F91"/>
<stop offset="0.57" stop-color="#28A6BB"/>
<stop offset="0.78" stop-color="#17B9D4"/>
<stop offset="0.91" stop-color="#10C0DD"/>
</radialGradient>
<clipPath id="clip0">
<rect width="67.558" height="71" fill="white"/>
</clipPath>
</defs>
</svg>
